<?xml version="1.0" encoding="utf-8"?>
<!-- Generator: Adobe Illustrator 24.0.0, SVG Export Plug-In . SVG Version: 6.00 Build 0)  -->
<svg version="1.1" id="Layer_1" xmlns="http://www.w3.org/2000/svg" xmlns:xlink="http://www.w3.org/1999/xlink" x="0px" y="0px"
	 viewBox="0 0 109.6 111.9" style="enable-background:new 0 0 109.6 111.9;" xml:space="preserve">
<style type="text/css">
	.st0{fill:#E9ECEF;}
	.st1{fill:#4CAF50;}
	.st2{fill:#FF0066;}
	.st3{fill:url(#SVGID_1_);}
</style>
<title>logoAsset 4</title>
<g id="Layer_2_1_">
	<g id="Layer_14">
		<path class="st0" d="M208.8,88.9c-0.8-0.1-1.7-0.2-2.5-0.2h-29.7V76c0-2.1,1.7-3.9,3.9-3.9h37.4c1.1,0,1.9,0.8,1.9,1.9v4.2
			c0,0.2,0.2,0.4,0.4,0.4l0,0h6.6c0.2,0,0.4-0.2,0.4-0.4c0,0,0,0,0,0v-6.4c0-0.4-0.1-0.7-0.1-1.1l0,0c-0.1-0.6-0.3-1.2-0.6-1.8l0,0
			c0-0.1-0.1-0.2-0.1-0.3v-0.1l-0.1-0.3v-0.1l-0.2-0.3l0,0c-0.1-0.1-0.1-0.2-0.2-0.3l0,0c-0.1-0.1-0.1-0.2-0.2-0.2
			c0,0,0-0.1-0.1-0.1c0-0.1-0.1-0.1-0.1-0.2l-0.1-0.1l-0.2-0.2c0,0,0-0.1-0.1-0.1l-0.2-0.3c-1.5-1.5-3.6-2.4-5.8-2.4h-38.7
			c-2.2,0-4.3,0.5-6.1,1.6c-0.7,0.4-1.4,0.9-2,1.5c-0.6-0.6-1.3-1-2-1.5c-1.9-1.1-4-1.7-6.1-1.6h-38.5c-2.2,0-4.2,0.9-5.8,2.4
			c-0.1,0.1-0.2,0.2-0.2,0.3c0,0-0.1,0.1-0.1,0.1l-0.2,0.1l-0.1,0.1l-0.2,0.2l-0.1,0.1l-0.2,0.2l0,0l-0.2,0.3l0,0l-0.2,0.3
			c0,0,0,0,0,0.1c0,0.1-0.1,0.2-0.1,0.3v0.1c0,0.1-0.1,0.2-0.1,0.3l0,0c-0.3,0.6-0.5,1.2-0.6,1.8l0,0c-0.1,0.4-0.2,0.8-0.3,1.2v5.9
			c0,0.5,0.4,0.9,0.9,0.9h5.6c0.5,0,0.9-0.4,0.9-0.9c0,0,0,0,0,0V74c0-1.1,0.9-1.9,1.9-1.9h37.5c2.1,0,3.9,1.7,3.9,3.9v12.8h-29.7
			c-0.8,0-1.7,0.1-2.5,0.2c-10.5,1.3-18.4,10.2-18.4,20.8c0,2.1,0.6,4.2,1.7,6c1.1,1.8,2.6,3.3,4.3,4.4c1.8,1.1,3.9,1.7,6,1.7h31
			c1.6,0,3.1-0.5,4.5-1.4l0.4-0.3l0,0l0,0l0.4-0.3l0.1-0.1l0.3-0.3l0.1-0.1l0.4-0.4l0,0l0.4-0.4l0.1-0.1l0.3-0.3l0.1-0.1l0.4-0.4
			v4.2h8.4v-4.2l0.4,0.4l0.1,0.1l0.3,0.3l0.1,0.1l0.4,0.4l0,0l0.4,0.4l0.1,0.1l0.3,0.3l0.1,0.1l0.4,0.3l0,0l0,0l0.4,0.3
			c1.3,0.9,2.9,1.4,4.5,1.4h31c2.1,0,4.2-0.6,6-1.7c1.8-1.1,3.3-2.6,4.4-4.4c1.1-1.8,1.7-3.9,1.6-6
			C227.1,99.1,219.2,90.2,208.8,88.9L208.8,88.9z M126.8,112.4c-0.7-0.7-1.2-1.7-1.2-2.7c0-7,5.7-12.7,12.8-12.8h29.7v16.6h-38.6
			C128.5,113.6,127.5,113.2,126.8,112.4z M217.8,112.4c-0.7,0.7-1.7,1.2-2.7,1.2h-38.6V96.9h29.7c7,0,12.7,5.7,12.8,12.8
			C219,110.7,218.6,111.7,217.8,112.4z"/>
		<path class="st1" d="M139,19.7c18.6,1.1,31.4,14.4,26.9,34.7C149.5,56.5,135,38,139,19.7z"/>
		<path class="st2" d="M174.5,59.5c-9.9-25.5,3.9-46.2,27.1-49.7C210.8,33.4,197.6,53.7,174.5,59.5z"/>
	</g>
</g>
<g>
	<g>
		<linearGradient id="SVGID_1_" gradientUnits="userSpaceOnUse" x1="260.1946" y1="86.6141" x2="369.9036" y2="86.6141">
			<stop  offset="0.1628" style="stop-color:#191A2D"/>
			<stop  offset="0.3819" style="stop-color:#191A2D"/>
			<stop  offset="0.5697" style="stop-color:#191A2D"/>
			<stop  offset="1" style="stop-color:#FF0066"/>
		</linearGradient>
		<path class="st3" d="M351.5,82.7c-0.8-0.1-1.7-0.2-2.5-0.2h-29.7V69.8c0-1.1,0.4-2,1.1-2.7c0.8-0.8,1.7-1.1,2.7-1.1h37.5
			c1.1,0,1.9,0.9,1.9,1.9l0,4.2c0,0.2,0.2,0.4,0.4,0.4h1h5.6c0.2,0,0.4-0.2,0.4-0.4l0-6.4c0-0.4-0.1-0.7-0.1-1.1l0,0
			c-0.1-0.6-0.3-1.3-0.6-1.8c0,0,0,0,0,0c0-0.1-0.1-0.2-0.1-0.3c0,0,0,0,0-0.1c0-0.1-0.1-0.2-0.1-0.3c0,0,0,0,0-0.1
			c-0.1-0.1-0.1-0.2-0.2-0.3c0,0,0,0,0,0c-0.1-0.1-0.1-0.2-0.2-0.3c0,0,0,0,0,0c-0.1-0.1-0.1-0.2-0.2-0.2c0,0,0-0.1-0.1-0.1
			c0-0.1-0.1-0.1-0.1-0.2c0,0-0.1-0.1-0.1-0.1c-0.1-0.1-0.1-0.1-0.2-0.2c0,0,0-0.1-0.1-0.1c-0.1-0.1-0.2-0.2-0.2-0.2
			c-1.5-1.5-3.5-2.4-5.8-2.4h-38.6c-2.3,0-4.3,0.6-6.1,1.6c-0.7,0.4-1.4,0.9-2,1.5c-0.6-0.5-1.2-1-2-1.5c-1.8-1.1-3.9-1.6-6.1-1.6
			h-38.6c-2.3,0-4.3,0.9-5.8,2.4c-0.1,0.1-0.2,0.2-0.2,0.2c0,0,0,0.1-0.1,0.1c-0.1,0.1-0.1,0.1-0.2,0.2c0,0-0.1,0.1-0.1,0.1
			c0,0.1-0.1,0.1-0.1,0.2c0,0,0,0.1-0.1,0.1c-0.1,0.1-0.1,0.2-0.2,0.2c0,0,0,0,0,0c-0.1,0.1-0.1,0.2-0.2,0.3c0,0,0,0,0,0
			c-0.1,0.1-0.1,0.2-0.2,0.3c0,0,0,0,0,0.1c0,0.1-0.1,0.2-0.1,0.2c0,0,0,0,0,0.1c-0.1,0.1-0.1,0.2-0.1,0.3c0,0,0,0,0,0
			c-0.3,0.6-0.5,1.2-0.6,1.8l0,0c-0.1,0.4-0.1,0.7-0.1,1.1l0,5.9c0,0.5,0.4,0.9,0.9,0.9h5.6c0.5,0,0.9-0.4,0.9-0.9l0-3.7
			c0-1.1,0.9-1.9,1.9-1.9H307c1.1,0,2,0.4,2.7,1.1c0.8,0.8,1.1,1.7,1.1,2.7v12.8h-29.7c-0.9,0-1.7,0.1-2.5,0.2
			c-4.8,0.6-9,2.7-12.3,6c-3.8,3.8-6.1,9-6.1,14.8c0,2.2,0.6,4.2,1.6,6c1.1,1.8,2.6,3.3,4.4,4.4c1.8,1.1,3.8,1.6,6,1.6h30.7
			c0,0,0,0,0,0h0.2c1.6,0,3.1-0.5,4.5-1.4l0.4-0.3c0,0,0,0,0,0c0,0,0,0,0,0c0.1-0.1,0.3-0.2,0.4-0.3c0,0,0.1-0.1,0.1-0.1
			c0.1-0.1,0.2-0.2,0.3-0.3c0,0,0.1-0.1,0.1-0.1c0.1-0.1,0.3-0.2,0.4-0.4c0,0,0,0,0,0c0.1-0.1,0.3-0.2,0.4-0.4c0,0,0.1-0.1,0.1-0.1
			c0.1-0.1,0.2-0.2,0.3-0.3c0,0,0.1-0.1,0.1-0.1c0.1-0.1,0.3-0.3,0.4-0.4v4.1h8.3v-4.1c0.1,0.1,0.2,0.3,0.4,0.4c0,0,0.1,0.1,0.1,0.1
			c0.1,0.1,0.2,0.2,0.3,0.3c0,0,0.1,0.1,0.1,0.1c0.1,0.1,0.3,0.2,0.4,0.4c0,0,0,0,0,0c0.1,0.1,0.3,0.2,0.4,0.4c0,0,0.1,0.1,0.1,0.1
			c0.1,0.1,0.2,0.2,0.3,0.3c0,0,0.1,0.1,0.1,0.1c0.1,0.1,0.3,0.2,0.4,0.3c0,0,0,0,0,0c0,0,0,0,0,0l0.4,0.3c1.3,0.9,2.9,1.4,4.5,1.4
			h0.2c0,0,0,0,0,0h30.7c2.2,0,4.2-0.6,6-1.6c1.8-1.1,3.3-2.6,4.4-4.4c1.1-1.8,1.6-3.8,1.6-6c0-5.8-2.3-11-6.1-14.8
			C360.5,85.4,356.3,83.3,351.5,82.7z M269.5,106.2c-0.8-0.8-1.1-1.7-1.1-2.7c0-3.7,1.5-7,4-9.3c2.3-2.1,5.4-3.5,8.7-3.5h29.7v16.6
			h-38.6C271.2,107.3,270.3,107,269.5,106.2z M360.6,106.2c-0.8,0.8-1.7,1.1-2.7,1.1h-38.6V90.7H349c3.4,0,6.5,1.3,8.7,3.5
			c2.5,2.3,4,5.6,4,9.3C361.7,104.5,361.3,105.4,360.6,106.2z"/>
	</g>
	<path class="st1" d="M281.7,13.4c18.6,1,31.4,14.4,26.9,34.8C292.2,50.3,277.7,31.7,281.7,13.4z"/>
	<path class="st2" d="M317.2,53.3c-9.9-25.5,3.9-46.2,27.1-49.7C353.5,27.2,340.4,47.5,317.2,53.3z"/>
</g>
</svg>
