<svg xmlns="http://www.w3.org/2000/svg" viewBox="0 0 109.64 111.9"><defs><style>.cls-1{fill:#e9ecef;}.cls-2{fill:#4caf50;}.cls-3{fill:#f06;}</style></defs><title>logoAsset 4</title><g id="Layer_2" data-name="Layer 2"><g id="Layer_14" data-name="Layer 14"><path class="cls-1" d="M91.24,79.07a19.31,19.31,0,0,0-2.53-.16H59V66.15a3.89,3.89,0,0,1,3.88-3.88h37.45a1.91,1.91,0,0,1,1.91,1.9l0,4.17a.4.4,0,0,0,.4.4h6.55a.4.4,0,0,0,.41-.4l0-6.42a10,10,0,0,0-.12-1.1v0a8.74,8.74,0,0,0-.57-1.84h0c0-.1-.09-.2-.14-.31l0-.06-.14-.25,0-.07-.15-.27,0,0c-.06-.1-.12-.2-.19-.3l0,0c-.06-.07-.11-.15-.17-.23a.27.27,0,0,0-.07-.08,1.33,1.33,0,0,0-.14-.19l-.08-.09-.16-.18a.27.27,0,0,0-.07-.08l-.23-.25a8.16,8.16,0,0,0-5.78-2.39H62.9a11.71,11.71,0,0,0-6.12,1.64,12.53,12.53,0,0,0-2,1.47,12.53,12.53,0,0,0-2-1.47,11.74,11.74,0,0,0-6.12-1.64H8.17a8.16,8.16,0,0,0-5.78,2.39,2.73,2.73,0,0,0-.23.25.6.6,0,0,0-.08.08L1.93,57l-.08.09-.15.19-.06.08-.17.23,0,0-.2.3,0,0-.16.26a.16.16,0,0,1,0,.07c0,.08-.08.17-.13.25l0,.06c0,.11-.1.21-.14.31h0a8.19,8.19,0,0,0-.57,1.84v0A8,8,0,0,0,0,61.92l0,5.93a.89.89,0,0,0,.89.89H6.47a.88.88,0,0,0,.89-.88l0-3.69a1.91,1.91,0,0,1,1.91-1.9H46.74a3.89,3.89,0,0,1,3.88,3.88V78.91H20.93a19.2,19.2,0,0,0-2.53.16A20.92,20.92,0,0,0,0,99.83a11.5,11.5,0,0,0,1.65,6A12.5,12.5,0,0,0,6,110.25a11.49,11.49,0,0,0,6,1.65H43a8,8,0,0,0,4.46-1.37l.43-.29h0l0,0,.42-.29.13-.1.33-.26.12-.09.43-.37,0,0,.38-.36.12-.12.29-.29.11-.12.38-.42v4.15H59v-4.15l.38.42.11.12.29.29.12.12.38.36,0,0,.43.37.11.09.34.26.13.1.42.3,0,0h0l.43.29a8,8,0,0,0,4.46,1.37H97.58a11.49,11.49,0,0,0,6-1.65,12.58,12.58,0,0,0,4.38-4.38,11.5,11.5,0,0,0,1.65-6,20.94,20.94,0,0,0-18.4-20.76ZM9.32,102.57a3.7,3.7,0,0,1-1.15-2.74A12.77,12.77,0,0,1,20.93,87.08H50.62v16.64H12.06A3.72,3.72,0,0,1,9.32,102.57Zm91,0a3.73,3.73,0,0,1-2.74,1.15H59V87.08H88.71a12.79,12.79,0,0,1,12.76,12.75A3.74,3.74,0,0,1,100.32,102.57Z"/><path class="cls-2" d="M21.5,9.83c18.58,1.05,31.37,14.35,26.87,34.74C32,46.69,17.51,28.13,21.5,9.83Z"/><path class="cls-3" d="M57,49.71C47.1,24.2,60.94,3.56,84.06,0,93.28,23.6,80.1,43.91,57,49.71Z"/></g></g></svg>