<svg xmlns="http://www.w3.org/2000/svg" viewBox="0 0 395.51 49.91"><defs><style>.cls-1{fill:#e9ecef;}.cls-2{fill:#4caf50;}.cls-3{fill:#f06;}</style></defs><title>logoAsset 5</title><g id="Layer_2" data-name="Layer 2"><g id="Layer_2-2" data-name="Layer 2"><path class="cls-1" d="M0,21.7a5.6,5.6,0,0,1,5.64-5.64H28.21a5.59,5.59,0,0,1,5.64,5.64V49.91h-3.8V37.54H3.81V49.91H0Zm30.05,12v-12a1.88,1.88,0,0,0-1.84-1.84H5.64a1.77,1.77,0,0,0-1.29.55,1.76,1.76,0,0,0-.54,1.29v12Z"/><path class="cls-1" d="M39.31,49.91V16.06H67.52a5.56,5.56,0,0,1,2.84.75,5.5,5.5,0,0,1,2,2,5.59,5.59,0,0,1,.75,2.85V44.27a5.6,5.6,0,0,1-5.64,5.64ZM45,46.1H67.52a1.84,1.84,0,0,0,1.83-1.83V21.7a1.86,1.86,0,0,0-1.83-1.84H45a1.86,1.86,0,0,0-1.83,1.84V44.27A1.84,1.84,0,0,0,45,46.1Z"/><path class="cls-1" d="M78.52,21.7a5.6,5.6,0,0,1,5.65-5.64h22.56a5.59,5.59,0,0,1,4.89,2.79,5.5,5.5,0,0,1,.76,2.85V49.91h-3.81V37.54H82.33V49.91H78.52Zm30.05,12v-12a1.86,1.86,0,0,0-1.84-1.84H84.17a1.86,1.86,0,0,0-1.84,1.84v12Z"/><path class="cls-1" d="M117.74,49.91V16.06H123l14,16.73,14.06-16.73h5.22V49.91h-3.81V20.38L137,38.77,121.55,20.38V49.91Z"/><path class="cls-1" d="M166.78,49.91a5.6,5.6,0,0,1-5.64-5.64V43h3.8v1.32a1.76,1.76,0,0,0,.54,1.29,1.78,1.78,0,0,0,1.3.54h22.57a1.84,1.84,0,0,0,1.83-1.83V36.7a1.69,1.69,0,0,0-.54-1.27,1.78,1.78,0,0,0-1.29-.52H166.78a5.4,5.4,0,0,1-2.85-.78,5.7,5.7,0,0,1-2-2,5.46,5.46,0,0,1-.75-2.82V21.7a5.59,5.59,0,0,1,5.64-5.64h22.57A5.59,5.59,0,0,1,195,21.7V23h-3.81V21.7a1.86,1.86,0,0,0-1.83-1.84H166.78a1.79,1.79,0,0,0-1.3.55,1.76,1.76,0,0,0-.54,1.29v7.57a1.7,1.7,0,0,0,.54,1.27,1.85,1.85,0,0,0,1.3.52h22.57a5.38,5.38,0,0,1,2.84.77,5.83,5.83,0,0,1,2.05,2.05A5.41,5.41,0,0,1,195,36.7v7.57a5.6,5.6,0,0,1-5.64,5.64Z"/><path class="cls-1" d="M246.08,17.18a7.3,7.3,0,0,0-1-.5,7,7,0,0,0-2.56-.46H220a4.74,4.74,0,0,0-3.37,1.39l-.14.15,0,0-.09.11-.05.05-.08.11,0,.05-.1.14,0,0-.11.18v0a.6.6,0,0,0-.09.15l0,0s-.06.11-.08.16l0,0-.09.18h0a4.84,4.84,0,0,0-.33,1.08v0a3.39,3.39,0,0,0-.07.64v3.45a.52.52,0,0,0,.52.52h3.25a.53.53,0,0,0,.52-.51V22.09A1.13,1.13,0,0,1,220.69,21h21.82a2.29,2.29,0,0,1,2.27,2.27v7.43H227.47a11.84,11.84,0,0,0-1.47.09,12.19,12.19,0,0,0-10.72,12.1,6.78,6.78,0,0,0,.95,3.52A7.47,7.47,0,0,0,218.79,49a6.77,6.77,0,0,0,3.51.95h18a4.65,4.65,0,0,0,2.6-.79l.25-.17h0l0,0a2.2,2.2,0,0,0,.25-.17l.07-.05.2-.16a.18.18,0,0,1,.07-.05l.24-.22h0l.22-.21a.23.23,0,0,0,.07-.07,1.37,1.37,0,0,0,.17-.17l.07-.07.22-.24V49.9h4.85V47.49h0V22.38a5.25,5.25,0,0,0-1.27-3.45l0,0A8,8,0,0,0,246.08,17.18Zm-1.3,28H222.3A2.27,2.27,0,0,1,220,42.87a7.43,7.43,0,0,1,7.43-7.43h17.31Z"/><path class="cls-2" d="M238.65,3c5.78.32,9.76,4.46,8.36,10.81C241.91,14.5,237.41,8.72,238.65,3Z"/><path class="cls-3" d="M249.64,15.4c-3-8,1.33-14.35,8.54-15.4C261,7.37,256.84,13.66,249.64,15.4Z"/><path class="cls-1" d="M253.51,49.91V16.1h28.22a5.39,5.39,0,0,1,2.84.78,6,6,0,0,1,2.05,2,5.47,5.47,0,0,1,.75,2.83v9.92a5.46,5.46,0,0,1-.75,2.82,5.89,5.89,0,0,1-2.05,2,5.39,5.39,0,0,1-2.84.78H257.32v12.6Zm5.65-16.46h22.57a1.81,1.81,0,0,0,1.29-.51,1.7,1.7,0,0,0,.54-1.27V21.75a1.84,1.84,0,0,0-1.83-1.84H259.16a1.84,1.84,0,0,0-1.84,1.84v9.92a1.7,1.7,0,0,0,.54,1.27A1.82,1.82,0,0,0,259.16,33.45Z"/><path class="cls-1" d="M290.71,49.91V16.1h28.21a5.39,5.39,0,0,1,2.84.78,5.89,5.89,0,0,1,2.05,2,5.47,5.47,0,0,1,.75,2.83v9.92a5.46,5.46,0,0,1-.75,2.82,5.81,5.81,0,0,1-2.05,2,5.39,5.39,0,0,1-2.84.78H294.51v12.6Zm5.64-16.46h22.57a1.81,1.81,0,0,0,1.29-.51,1.7,1.7,0,0,0,.54-1.27V21.75a1.84,1.84,0,0,0-1.83-1.84H296.35a1.84,1.84,0,0,0-1.84,1.84v9.92a1.7,1.7,0,0,0,.54,1.27A1.84,1.84,0,0,0,296.35,33.45Z"/><path class="cls-1" d="M327.94,49.91V16h3.81V46.1H361.8v3.81Z"/><path class="cls-1" d="M364.62,49.91V16.06h30.89v3.8H368.43v11.2H390.2v3.85H368.43V46.1h27.08v3.81Z"/></g></g></svg>