<svg xmlns="http://www.w3.org/2000/svg" viewBox="0 0 818 103.22"><defs><style>.cls-1{fill:#e9ecef;}.cls-2{fill:#4caf50;}.cls-3{fill:#f06;}</style></defs><title>logoAsset 6</title><g id="Layer_2" data-name="Layer 2"><g id="Layer_2-2" data-name="Layer 2"><path class="cls-1" d="M0,44.88A11.58,11.58,0,0,1,11.67,33.21H58.35A11.59,11.59,0,0,1,70,44.88v58.34H62.14V77.65H7.88v25.57H0ZM62.14,69.77V44.88a3.82,3.82,0,0,0-3.79-3.8H11.67a3.82,3.82,0,0,0-3.79,3.8V69.77Z"/><path class="cls-1" d="M81.3,103.22v-70h58.35a11.59,11.59,0,0,1,11.67,11.67V91.55a11.58,11.58,0,0,1-11.67,11.67ZM93,95.35h46.68a3.82,3.82,0,0,0,3.79-3.8V44.88a3.82,3.82,0,0,0-3.79-3.8H93a3.82,3.82,0,0,0-3.8,3.8V91.55a3.82,3.82,0,0,0,3.8,3.8Z"/><path class="cls-1" d="M162.4,44.88a11.58,11.58,0,0,1,11.67-11.67h46.68a11.59,11.59,0,0,1,11.67,11.67v58.34h-7.88V77.65H170.28v25.57H162.4Zm62.14,24.89V44.88a3.82,3.82,0,0,0-3.79-3.8H174.07a3.82,3.82,0,0,0-3.79,3.8V69.77Z"/><path class="cls-1" d="M243.5,103.22v-70h10.8l29.08,34.62,29.07-34.62h10.8v70h-7.88V42.15l-32,38-32-38v61.07Z"/><path class="cls-1" d="M344.93,103.22a11.59,11.59,0,0,1-11.67-11.67V88.83h7.88v2.72a3.82,3.82,0,0,0,3.79,3.8h46.68a3.82,3.82,0,0,0,3.79-3.8V75.9a3.49,3.49,0,0,0-1.12-2.63,3.72,3.72,0,0,0-2.67-1.07H344.93a11.19,11.19,0,0,1-5.88-1.6,11.91,11.91,0,0,1-4.23-4.23,11.22,11.22,0,0,1-1.56-5.84V44.88a11.58,11.58,0,0,1,11.67-11.67h46.68a11.59,11.59,0,0,1,11.67,11.67V47.6H395.4V44.88a3.82,3.82,0,0,0-3.79-3.8H344.93a3.82,3.82,0,0,0-3.79,3.8V60.53a3.48,3.48,0,0,0,1.12,2.63,3.72,3.72,0,0,0,2.67,1.07h46.68a11.19,11.19,0,0,1,5.88,1.6,11.91,11.91,0,0,1,4.23,4.23,11.22,11.22,0,0,1,1.56,5.84V91.55a11.58,11.58,0,0,1-11.67,11.67Z"/><path class="cls-1" d="M509,35.53a15.27,15.27,0,0,0-2.1-1,14.6,14.6,0,0,0-5.28-1H455.08a9.81,9.81,0,0,0-7,2.88l-.29.3-.08.09-.19.22a.52.52,0,0,1-.1.11,1.84,1.84,0,0,1-.17.22l-.08.11-.2.28,0,.06-.24.35s0,0,0,0a3.37,3.37,0,0,0-.19.32l0,.06-.17.32s0,0,0,.08-.12.25-.17.37h0a10.41,10.41,0,0,0-.69,2.22v0a8.2,8.2,0,0,0-.14,1.32l0,7.15a1.08,1.08,0,0,0,1.07,1.08H453a1.07,1.07,0,0,0,1.08-1.07l0-4.44a2.3,2.3,0,0,1,2.3-2.3h45.14a4.71,4.71,0,0,1,4.68,4.69V63.46H470.46a23.68,23.68,0,0,0-3,.19,25.22,25.22,0,0,0-22.18,25,13.86,13.86,0,0,0,2,7.27,15.11,15.11,0,0,0,5.28,5.29,13.91,13.91,0,0,0,7.27,2H497a9.62,9.62,0,0,0,5.37-1.64l.52-.36h0l.06,0,.5-.35.15-.12.41-.32.14-.11c.18-.14.35-.29.51-.44l0,0,.46-.43.14-.14.35-.35.14-.15c.15-.17.31-.33.45-.5v5h10v-5l0,0v-52a10.92,10.92,0,0,0-2.62-7.12l-.07-.08A16.55,16.55,0,0,0,509,35.53Zm-2.7,57.83H459.77a4.71,4.71,0,0,1-4.69-4.69A15.4,15.4,0,0,1,470.46,73.3h35.79Z"/><path class="cls-2" d="M493.58,6.26c12,.67,20.19,9.23,17.29,22.36C500.31,30,491,18,493.58,6.26Z"/><path class="cls-3" d="M516.31,31.86C510.06,15.39,519.07,2.18,534,0,539.78,15.24,531.2,28.24,516.31,31.86Z"/><path class="cls-1" d="M524.32,103.22V33.3h58.35a11.2,11.2,0,0,1,5.88,1.61,12.07,12.07,0,0,1,4.23,4.23A11.19,11.19,0,0,1,594.34,45V65.49a11.22,11.22,0,0,1-1.56,5.84,12.07,12.07,0,0,1-4.23,4.23,11.19,11.19,0,0,1-5.88,1.6H532.2v26.06Zm11.67-34h46.68a3.74,3.74,0,0,0,2.67-1.07,3.48,3.48,0,0,0,1.12-2.63V45a3.82,3.82,0,0,0-3.79-3.79H536A3.81,3.81,0,0,0,532.2,45V65.49a3.5,3.5,0,0,0,1.11,2.63A3.76,3.76,0,0,0,536,69.19Z"/><path class="cls-1" d="M601.24,103.22V33.3h58.35a11.2,11.2,0,0,1,5.88,1.61,12.07,12.07,0,0,1,4.23,4.23A11.19,11.19,0,0,1,671.26,45V65.49a11.22,11.22,0,0,1-1.56,5.84,12.07,12.07,0,0,1-4.23,4.23,11.19,11.19,0,0,1-5.88,1.6H609.12v26.06Zm11.67-34h46.68a3.74,3.74,0,0,0,2.67-1.07,3.48,3.48,0,0,0,1.12-2.63V45a3.82,3.82,0,0,0-3.79-3.79H612.91A3.82,3.82,0,0,0,609.12,45V65.49a3.48,3.48,0,0,0,1.12,2.63A3.72,3.72,0,0,0,612.91,69.19Z"/><path class="cls-1" d="M678.26,103.22V33.11h7.88V95.35h62.14v7.87Z"/><path class="cls-1" d="M754.11,103.22v-70H818v7.87H762V64.23h45v8H762V95.35h56v7.87Z"/></g></g></svg>